<svg xmlns="http://www.w3.org/2000/svg" viewBox="0 0 51.67 49.51"><defs><style>.cls-1{fill:#666;}</style></defs><title>line</title><g id="Layer_2" data-name="Layer 2"><g id="Layer_1-2" data-name="Layer 1"><path class="cls-1" d="M25.83,0C11.59,0,0,9.47,0,21.1,0,31.53,9.19,40.26,21.6,41.92c.84.18,2,.56,2.28,1.28A5.33,5.33,0,0,1,24,45.54l-.35,2.21c-.1.65-.52,2.57,2.26,1.4S40.76,40.31,46.18,34c3.71-4.09,5.49-8.28,5.49-12.93C51.67,9.47,40.07,0,25.83,0ZM15.72,28H10.59a1.37,1.37,0,0,1-1.36-1.36V16.32a1.36,1.36,0,1,1,2.71,0v9h3.78a1.36,1.36,0,0,1,0,2.73ZM21,26.66a1.35,1.35,0,1,1-2.71,0V16.32a1.35,1.35,0,1,1,2.71,0Zm12.36,0A1.36,1.36,0,0,1,32.46,28,1.39,1.39,0,0,1,32,28a1.33,1.33,0,0,1-1.1-.54l-5.26-7.19v6.37a1.35,1.35,0,1,1-2.71,0V16.32A1.36,1.36,0,0,1,23.89,15a1.25,1.25,0,0,1,.42-.07,1.39,1.39,0,0,1,1.07.55l5.3,7.21v-6.4a1.36,1.36,0,1,1,2.71,0Zm8.3-6.53a1.37,1.37,0,0,1,0,2.73H37.91V25.3h3.78a1.36,1.36,0,0,1,0,2.73H36.55a1.36,1.36,0,0,1-1.35-1.36V16.32A1.36,1.36,0,0,1,36.56,15H41.7a1.36,1.36,0,0,1,0,2.73H37.91v2.44Z"/></g></g></svg>