<svg xmlns="http://www.w3.org/2000/svg" viewBox="0 0 53.04 53.04"><defs><style>.cls-1{fill:#666;}</style></defs><title>link</title><g id="Layer_2" data-name="Layer 2"><g id="Layer_1-2" data-name="Layer 1"><path class="cls-1" d="M26.52,0A26.52,26.52,0,1,0,53,26.52,26.52,26.52,0,0,0,26.52,0ZM32,32.52h0c-.59,1.43-5.52,6-6.67,7.28a8.63,8.63,0,0,1-12.17.12,8.74,8.74,0,0,1-.06-12.24l5.06-5.16a0,0,0,0,1,.08,0,12,12,0,0,0,.35,5.58.42.42,0,0,1-.1.43l-2.42,2.49a4.12,4.12,0,0,0,5.89,5.77l4-4h0c1.14-1.18,2.58-2.48,2.76-3.9h0a4,4,0,0,0-.42-2.6h0a4.32,4.32,0,0,0-1.65-1.69.39.39,0,0,1-.15-.5,8.36,8.36,0,0,1,2.31-2.79.48.48,0,0,1,.53,0,8.64,8.64,0,0,1,3.48,5h0A8.81,8.81,0,0,1,32,32.52Zm8-7.24-5.14,5.24a0,0,0,0,1-.08,0,11.42,11.42,0,0,0-.32-5.6.42.42,0,0,1,.1-.43L36.95,22a4.14,4.14,0,0,0-.06-5.83,4.09,4.09,0,0,0-5.8,0l-4,4.07h0c-1.06,1.12-2.46,2.32-2.72,3.62h0a4.2,4.2,0,0,0,.36,2.87h0a4.36,4.36,0,0,0,1.67,1.72.34.34,0,0,1,.13.48,14.47,14.47,0,0,1-2.34,2.83.36.36,0,0,1-.45,0A8.72,8.72,0,0,1,22.4,18.63l0,0,5.26-5.37A8.61,8.61,0,0,1,40,25.29Z"/></g></g></svg>