<svg xmlns="http://www.w3.org/2000/svg" width="45.751" height="45.751" viewBox="0 0 45.751 45.751">
  <g id="Group_3187" data-name="Group 3187" transform="translate(-1841.249 -506.658)">
    <g id="Group_3185" data-name="Group 3185">
      <path id="Path_57441" data-name="Path 57441" d="M1864.124,506.658A22.876,22.876,0,1,0,1887,529.534,22.875,22.875,0,0,0,1864.124,506.658Zm0,44.568a21.693,21.693,0,1,1,21.693-21.692A21.692,21.692,0,0,1,1864.124,551.226Z" fill-rule="evenodd"/>
    </g>
    <g id="Group_3186" data-name="Group 3186">
      <path id="Path_57442" data-name="Path 57442" d="M1863.21,510.765a.274.274,0,0,0-.273.273V514.3a.275.275,0,0,1-.274.273h-1.557a.275.275,0,0,1-.274-.273v-3.267a.274.274,0,0,0-.273-.273h-.66a.274.274,0,0,0-.274.273V514.3a.274.274,0,0,1-.274.273H1857.8a.274.274,0,0,1-.274-.273v-3.267a.274.274,0,0,0-.274-.273h-.66a.275.275,0,0,0-.274.273v4.474a.275.275,0,0,0,.274.274h7.283a.274.274,0,0,0,.274-.274v-4.474a.274.274,0,0,0-.274-.273Z"/>
      <path id="Path_57443" data-name="Path 57443" d="M1852.153,520.766a.275.275,0,0,0,.274-.274v-.66a.274.274,0,0,0-.274-.274h-6.237a.274.274,0,0,0-.274.274v.66a.275.275,0,0,0,.274.274h.905a.274.274,0,0,1,.274.273v7.046a.274.274,0,0,1-.274.274h-.905a.274.274,0,0,0-.274.274v.66a.274.274,0,0,0,.274.273h6.237a.274.274,0,0,0,.274-.273v-.66a.274.274,0,0,0-.274-.274h-.9a.274.274,0,0,1-.274-.274v-7.046a.274.274,0,0,1,.274-.273Zm-2.386,7.319a.275.275,0,0,1-.274.274h-.917a.274.274,0,0,1-.273-.274v-7.046a.274.274,0,0,1,.273-.273h.917a.275.275,0,0,1,.274.273Z"/>
      <path id="Path_57444" data-name="Path 57444" d="M1863.87,522.208h-2.764a.276.276,0,0,1-.274-.274v-.9a.275.275,0,0,1,.274-.273h2.755a.275.275,0,0,0,.273-.274v-.66a.274.274,0,0,0-.273-.274H1856.6a.274.274,0,0,0-.274.274v.66a.275.275,0,0,0,.274.274h2.754a.274.274,0,0,1,.274.273v.9a.275.275,0,0,1-.274.274h-2.764a.275.275,0,0,0-.274.274v6.772a.275.275,0,0,0,.274.274h.66a.274.274,0,0,0,.274-.274v-5.565a.274.274,0,0,1,.274-.274h.452a.274.274,0,0,1,.274.274v5.565a.274.274,0,0,0,.274.274h.66a.275.275,0,0,0,.274-.274v-5.565a.274.274,0,0,1,.273-.274h.453a.274.274,0,0,1,.274.274v5.565a.274.274,0,0,0,.274.274h.659a.274.274,0,0,0,.274-.274v-5.565a.275.275,0,0,1,.274-.274h.453a.275.275,0,0,1,.274.274v5.565a.274.274,0,0,0,.273.274h.66a.274.274,0,0,0,.274-.274v-6.772A.274.274,0,0,0,1863.87,522.208Z"/>
      <circle id="Ellipse_16" data-name="Ellipse 16" cx="2.723" cy="2.723" r="2.723" transform="translate(1846.255 510.557)"/>
    </g>
  </g>
</svg>
