<svg xmlns="http://www.w3.org/2000/svg" viewBox="0 0 37.87 23.84"><defs><style>.cls-1{fill:none;stroke:#29b1c4;stroke-miterlimit:10;stroke-width:2.11px;}.cls-2{fill:#29b1c4;}</style></defs><title>Asset 9</title><g id="Layer_2" data-name="Layer 2"><g id="Layer_1-2" data-name="Layer 1"><line class="cls-1" y1="1.06" x2="37.87" y2="1.06"/><line class="cls-1" x1="37.87" y1="22.78" y2="22.78"/><path class="cls-2" d="M8.42,12.82a2.66,2.66,0,0,1-.94.83,2.2,2.2,0,0,1-1.14.27H3v2.33a1,1,0,0,1-.38.84,1.26,1.26,0,0,1-.8.27,1.11,1.11,0,0,1-.42-.08A.82.82,0,0,1,1.05,17a1,1,0,0,1-.32-.81V8.89a1.47,1.47,0,0,1,.1-.63,1.64,1.64,0,0,1,.37-.51,1.59,1.59,0,0,1,.48-.29,2.79,2.79,0,0,1,.61-.1H6.45a2.63,2.63,0,0,1,1.11.27,2.84,2.84,0,0,1,.89.75,3.94,3.94,0,0,1,.68,2.22A3.74,3.74,0,0,1,8.42,12.82Zm-1.77-3a1,1,0,0,0-.31-.27A1.22,1.22,0,0,0,6,9.49H3.55l-.25,0-.13,0A.47.47,0,0,0,3,10v1.83H6a.48.48,0,0,0,.34-.09.9.9,0,0,0,.29-.32A1.15,1.15,0,0,0,6.82,11a1.58,1.58,0,0,0,.06-.42A1.53,1.53,0,0,0,6.65,9.86Z"/><path class="cls-2" d="M18,16.81a.67.67,0,0,1-.57.34H12.1a1.74,1.74,0,0,1-1.29-.43,1.77,1.77,0,0,1-.42-1.31V8.11a.74.74,0,0,1,.08-.42,1,1,0,0,1,.27-.32,1.35,1.35,0,0,1,.78-.25l.42.06a1.92,1.92,0,0,1,.37.18,1.1,1.1,0,0,1,.25.33,1.25,1.25,0,0,1,.1.42v6.06a1.2,1.2,0,0,0,0,.43.44.44,0,0,0,.16.24c.09.1.3.14.62.13H17.4a1,1,0,0,1,.33.09.74.74,0,0,1,.25.23,1.67,1.67,0,0,1,.15.37,2.29,2.29,0,0,1,.07.41A1.48,1.48,0,0,1,18,16.81Z"/><path class="cls-2" d="M27.3,15.13a3.05,3.05,0,0,1-.69,1.14,4.28,4.28,0,0,1-3.16,1.07,4.14,4.14,0,0,1-3.08-1.05,3.52,3.52,0,0,1-1-2.71V8.19a.93.93,0,0,1,.32-.78,1,1,0,0,1,.34-.22,2,2,0,0,1,.42-.08,1.57,1.57,0,0,1,.82.25,1.32,1.32,0,0,1,.27.36,1.2,1.2,0,0,1,.11.46V13.1a2.36,2.36,0,0,0,.39,1.6,1,1,0,0,0,.53.37,2.08,2.08,0,0,0,.84.11,2.11,2.11,0,0,0,.84-.11,1.21,1.21,0,0,0,.56-.36,2.67,2.67,0,0,0,.4-1.61V8.18a.93.93,0,0,1,.07-.43,1.22,1.22,0,0,1,.26-.36,1.11,1.11,0,0,1,.76-.27,1.56,1.56,0,0,1,.82.25,1.32,1.32,0,0,1,.27.36,1.21,1.21,0,0,1,.11.45v5.4A4.86,4.86,0,0,1,27.3,15.13Z"/><path class="cls-2" d="M36.83,15.72a2.78,2.78,0,0,1-1.09,1,5.29,5.29,0,0,1-1.28.47,7.13,7.13,0,0,1-1.51.15,5.69,5.69,0,0,1-1.27-.14,4.37,4.37,0,0,1-1.09-.41,3.86,3.86,0,0,1-.92-.65,3.36,3.36,0,0,1-.65-.88,1.25,1.25,0,0,1-.22-.78.93.93,0,0,1,.08-.39.91.91,0,0,1,.24-.33,1,1,0,0,1,.71-.27.82.82,0,0,1,.62.3,4.18,4.18,0,0,0,1.22,1.08,2.29,2.29,0,0,0,1.28.36,3.62,3.62,0,0,0,1.5-.22.77.77,0,0,0,.52-.69c0-.51-1-1-2.88-1.32a4.77,4.77,0,0,1-2.33-.94A2,2,0,0,1,29,10.4,3,3,0,0,1,29.26,9,3,3,0,0,1,30.14,8a3.89,3.89,0,0,1,1.25-.64A6.59,6.59,0,0,1,33,7.12a8.83,8.83,0,0,1,1.63.18,4.7,4.7,0,0,1,1.28.52q.82.53.82,1.14a1.71,1.71,0,0,1-.08.45,1,1,0,0,1-.21.37,1,1,0,0,1-.73.34,1.47,1.47,0,0,1-.78-.19,4.59,4.59,0,0,0-2.27-.69,3.74,3.74,0,0,0-.57.08,1.92,1.92,0,0,0-.45.2,1.31,1.31,0,0,0-.31.32.63.63,0,0,0-.09.37.33.33,0,0,0,.18.28,1.52,1.52,0,0,0,.57.24,10.2,10.2,0,0,0,1.53.33c.32.08.59.13.8.17l.45.13a7.4,7.4,0,0,1,1.71,1,2.7,2.7,0,0,1,.74,2A2.79,2.79,0,0,1,36.83,15.72Z"/></g></g></svg>