<svg xmlns="http://www.w3.org/2000/svg" viewBox="0 0 28 28"><defs><style>.cls-1{fill:#666;}</style></defs><title>Asset 10</title><g id="Layer_2" data-name="Layer 2"><g id="Layer_1-2" data-name="Layer 1"><path class="cls-1" d="M14,28A14,14,0,1,1,28,14,14,14,0,0,1,14,28ZM14,1.33A12.67,12.67,0,1,0,26.67,14,12.68,12.68,0,0,0,14,1.33Z"/><path class="cls-1" d="M17.13,17.4a2.39,2.39,0,0,0-1.69.7l-3.93-2.65a3.25,3.25,0,0,0,0-2.88l3.93-2.65a2.43,2.43,0,1,0-.53-.8L11,11.76a3.36,3.36,0,1,0,0,4.48l3.94,2.66a2.4,2.4,0,1,0,2.22-1.5Z"/></g></g></svg>