<svg xmlns="http://www.w3.org/2000/svg" viewBox="0 0 53.04 53.04"><defs><style>.cls-1{fill:#666;}</style></defs><title>tg</title><g id="Layer_2" data-name="Layer 2"><g id="Layer_1-2" data-name="Layer 1"><path class="cls-1" d="M26.52,0A26.52,26.52,0,1,0,53,26.52,26.52,26.52,0,0,0,26.52,0ZM42.75,15.66h0L37.56,40c-.39,1.72-1.41,2.14-2.86,1.33l-7.9-5.79L23,39.16a2,2,0,0,1-1.59.77l.57-8L36.61,18.78c.64-.56-.14-.88-1-.31L17.51,29.8l-7.8-2.42c-1.7-.53-1.73-1.69.35-2.49L40.56,13.2C42,12.68,43.21,13.52,42.75,15.66Z"/></g></g></svg>