<svg xmlns="http://www.w3.org/2000/svg" viewBox="0 0 53.04 53.04"><defs><style>.cls-1{fill:#666;}</style></defs><title>twitter</title><g id="Layer_2" data-name="Layer 2"><g id="Layer_1-2" data-name="Layer 1"><path class="cls-1" d="M26.52,0A26.52,26.52,0,1,0,53,26.52,26.52,26.52,0,0,0,26.52,0ZM41.68,20c0,.31,0,.63,0,1,0,9.75-7.43,21-21,21A20.78,20.78,0,0,1,9.37,38.69a13.85,13.85,0,0,0,1.77.1,14.83,14.83,0,0,0,9.15-3.15,7.45,7.45,0,0,1-6.9-5.14,6.52,6.52,0,0,0,1.4.13,7.37,7.37,0,0,0,1.94-.24,7.42,7.42,0,0,1-5.91-7.25V23a7.29,7.29,0,0,0,3.34.91,7.38,7.38,0,0,1-2.27-9.87,20.89,20.89,0,0,0,15.21,7.72,7.6,7.6,0,0,1-.17-1.68,7.38,7.38,0,0,1,12.77-5,14.75,14.75,0,0,0,4.68-1.79,7.34,7.34,0,0,1-3.25,4.08,15.39,15.39,0,0,0,4.25-1.17A14.72,14.72,0,0,1,41.68,20Z"/></g></g></svg>